<svg width="24" height="25" viewBox="0 0 24 25" fill="none" xmlns="http://www.w3.org/2000/svg">
<g id="SVG">
<g id="Group">
<g id="CNLrn7">
<g id="Group_2">
<path id="Vector" d="M18.1016 15.1277C18.2871 15.4754 18.4751 15.8073 18.644 16.1487C18.9964 16.8611 19.298 17.5926 19.4057 18.3883C19.4574 18.7707 19.4593 19.1509 19.3342 19.524C19.1181 20.1671 18.6518 20.4895 17.9992 20.5751C17.3416 20.6615 16.7128 20.5167 16.1107 20.2813C15.4828 20.0358 14.8748 19.7392 14.2429 19.4581C14.2303 19.5013 14.2092 19.5793 14.1843 19.6559C13.9295 20.4387 13.6411 21.2069 13.1641 21.8873C13.0465 22.0548 12.9121 22.2111 12.7783 22.3662C12.6776 22.483 12.475 22.4852 12.3715 22.3733C12.28 22.2745 12.1524 22.2013 12.1655 22.0296C12.1731 21.93 12.1998 21.8595 12.2677 21.7849C12.631 21.3868 12.8847 20.919 13.0794 20.4221C13.2488 19.9895 13.3886 19.5451 13.5434 19.1068C13.5664 19.0415 13.5625 18.9977 13.4966 18.9564C12.6049 18.3984 11.7688 17.7643 10.9571 17.0971C10.9501 17.0912 10.9406 17.0887 10.9223 17.08C10.6973 17.2508 10.47 17.4273 10.2386 17.5985C9.93863 17.8204 9.63758 18.0415 9.33176 18.255C9.26414 18.3021 9.25263 18.3409 9.27508 18.4135C9.4524 18.9867 9.62636 19.5611 9.80256 20.1348C9.81182 20.1654 9.82893 20.1954 9.84829 20.221C10.0368 20.4687 10.229 20.7137 10.4159 20.9628C10.5668 21.1643 10.7125 21.3699 10.8595 21.5745C11.1089 21.9213 11.1922 22.3031 11.0688 22.7144C10.9251 23.1925 10.5225 23.3339 10.1 23.0635C9.74055 22.8334 9.53517 22.5071 9.47597 22.0817C9.42463 21.7125 9.3744 21.3413 9.29051 20.9788C9.2344 20.7364 9.11263 20.51 9.03379 20.2718C8.86993 19.778 8.71506 19.2811 8.5512 18.7693C8.49368 18.8027 8.42691 18.8406 8.36097 18.8798C7.57116 19.3523 6.75806 19.7754 5.87818 20.058C5.42702 20.2027 4.96548 20.304 4.49019 20.2897C3.93774 20.2732 3.44 20.1141 3.10051 19.6371C2.83873 19.2698 2.76887 18.847 2.79132 18.4107C2.83845 17.5031 3.17177 16.6785 3.56654 15.8757C3.71861 15.5668 3.88611 15.2655 4.0539 14.9468C3.79408 14.8595 3.53035 14.777 3.2711 14.6825C2.55816 14.4227 1.87188 14.1107 1.28211 13.6202C0.957491 13.3503 0.690947 13.033 0.567494 12.6222C0.399992 12.0636 0.556271 11.5732 0.918491 11.1363C1.32448 10.6467 1.84971 10.3145 2.42096 10.0645C3.00848 9.80751 3.61536 9.59427 4.22757 9.35663C4.14705 9.20484 4.04885 9.02752 3.95738 8.84683C3.60077 8.14119 3.28793 7.41927 3.15803 6.63226C3.12688 6.44428 3.10921 6.25349 3.09658 6.06298C3.08648 5.91063 3.24641 5.75295 3.39735 5.77034C3.51211 5.78353 3.63753 5.72994 3.74218 5.83684C3.82495 5.92157 3.86788 6.0035 3.87096 6.12779C3.8805 6.54697 3.99946 6.94594 4.1361 7.33819C4.34878 7.94815 4.64142 8.52108 4.9565 9.08363C5.00223 9.16528 5.04179 9.19277 5.14084 9.16949C6.0541 8.95569 6.98083 8.81905 7.91206 8.71327C7.98641 8.70486 8.0139 8.68269 8.02457 8.60638C8.12501 7.89568 8.22798 7.18499 8.33797 6.4757C8.35031 6.39546 8.33797 6.35337 8.27091 6.3183C7.77093 6.05793 7.27123 5.797 6.77125 5.53691C6.74712 5.52428 6.7199 5.51418 6.69297 5.51025C6.29259 5.45049 5.89193 5.39213 5.49127 5.33349C5.3204 5.30852 5.14841 5.28972 4.97895 5.25802C4.50281 5.16851 4.16023 4.90786 3.99105 4.44716C3.88415 4.15649 4.0062 3.87535 4.29266 3.75358C4.79068 3.54203 5.24717 3.6363 5.6728 3.9556C5.9674 4.17669 6.25976 4.40423 6.57372 4.5953C6.81053 4.73952 7.08352 4.82285 7.33351 4.94686C7.72968 5.14326 8.12024 5.35117 8.52932 5.56272C8.54587 5.50604 8.56663 5.44291 8.58291 5.37838C8.80624 4.4856 9.09102 3.6147 9.52479 2.79964C9.80115 2.28029 10.1353 1.80556 10.6345 1.47C11.2391 1.06317 11.9941 1.12209 12.5508 1.60019C13.0673 2.04405 13.4144 2.6052 13.6784 3.21685C13.9158 3.76677 14.1116 4.33465 14.3327 4.91291C14.4949 4.83211 14.6784 4.73587 14.8655 4.64777C15.517 4.34054 16.185 4.08129 16.9041 3.98169C17.0195 3.9657 17.1362 3.95756 17.2526 3.95027C17.4925 3.9354 17.6089 4.05267 17.6168 4.29256C17.6218 4.44463 17.6109 4.58184 17.4642 4.66769C17.4333 4.68565 17.3991 4.70865 17.3657 4.71006C16.7105 4.73503 16.1028 4.94013 15.5119 5.20246C15.1966 5.34247 14.8899 5.5024 14.579 5.65222C14.5232 5.67916 14.5019 5.70441 14.5153 5.77932C14.6615 6.59607 14.8012 7.41394 14.9393 8.23237C14.9617 8.36536 14.9595 8.50256 14.9825 8.63556C14.9892 8.67399 15.0406 8.72814 15.0782 8.73432C15.7271 8.84009 16.3767 8.94054 17.027 9.03677C17.0643 9.04239 17.1292 9.01237 17.146 8.98038C17.3814 8.53567 17.6232 8.09377 17.834 7.63728C17.9002 7.4939 17.8718 7.30873 17.8993 7.14487C17.9799 6.66677 18.0525 6.18671 18.1552 5.71339C18.238 5.33265 18.4804 5.05376 18.8306 4.88429C19.2248 4.6935 19.5783 4.86998 19.6944 5.29758C19.8288 5.79195 19.6852 6.21168 19.3743 6.60056C19.1619 6.86598 18.9621 7.14375 18.7798 7.43049C18.6788 7.5893 18.6322 7.78177 18.5483 7.95264C18.3631 8.32917 18.1698 8.70177 17.9799 9.07577C17.9574 9.12011 17.935 9.16444 17.908 9.21774C18.2484 9.31258 18.5764 9.39675 18.8999 9.49579C19.651 9.72558 20.3835 10.0022 21.0457 10.4332C21.2673 10.5774 21.4693 10.7536 21.6719 10.9253C21.787 11.023 21.7701 11.2356 21.6629 11.3431C21.549 11.457 21.4424 11.579 21.2561 11.5235C21.2174 11.512 21.1719 11.5022 21.1447 11.4758C20.773 11.1153 20.3226 10.8776 19.858 10.6689C19.0985 10.3277 18.302 10.099 17.5048 9.91749C16.9777 10.6459 16.4561 11.3664 15.928 12.0959C16.1637 12.3969 16.4204 12.7098 16.6603 13.0349C16.9757 13.4628 17.2801 13.8988 17.5837 14.3351C17.6364 14.4109 17.6782 14.4403 17.7742 14.41C18.3118 14.2403 18.8524 14.0801 19.3903 13.9106C19.4571 13.8896 19.5146 13.8349 19.5732 13.7914C19.7564 13.6561 19.9366 13.5161 20.1209 13.3826C20.4004 13.1803 20.6787 12.9763 20.9646 12.7835C21.319 12.5448 21.7056 12.5162 22.1029 12.6545C22.4474 12.7743 22.5888 13.0784 22.4505 13.4182C22.2718 13.857 21.9396 14.1222 21.4716 14.2041C21.0628 14.2756 20.6501 14.3259 20.2438 14.4075C20.0783 14.4406 19.9276 14.5419 19.7643 14.5949C19.2503 14.7619 18.7338 14.9204 18.2183 15.0826C18.183 15.0938 18.1488 15.1084 18.1008 15.1266L18.1016 15.1277ZM8.63706 12.1057C8.62303 12.1057 8.60872 12.1057 8.59469 12.1057C8.61096 12.6654 8.62527 13.2252 8.64632 13.7849C8.64856 13.8444 8.67409 13.9173 8.71449 13.9586C9.05034 14.3031 9.39096 14.6432 9.73466 14.9799C9.77703 15.0214 9.84661 15.0559 9.9044 15.0573C10.5856 15.0719 11.2669 15.0812 11.9481 15.0854C12.0107 15.0857 12.0901 15.0553 12.1336 15.0116C12.8712 14.2639 13.6049 13.5125 14.3369 12.7591C14.3686 12.7266 14.3905 12.6699 14.3911 12.6242C14.395 12.2791 14.3944 11.934 14.3896 11.5891C14.3891 11.5434 14.3683 11.4865 14.3369 11.4548C13.6467 10.7589 12.9542 10.0654 12.259 9.37459C12.2203 9.33615 12.1538 9.30472 12.1005 9.30528C11.321 9.31426 10.5419 9.32745 9.76272 9.34625C9.70099 9.34765 9.62748 9.38356 9.58175 9.42677C9.31043 9.68322 9.0495 9.95088 8.77706 10.2059C8.67634 10.3002 8.63425 10.4009 8.63537 10.5367C8.63986 11.0597 8.63706 11.5827 8.63706 12.1057ZM4.57997 19.5383C5.14813 19.5145 5.6742 19.3377 6.19046 19.1321C6.93791 18.8344 7.63625 18.4405 8.31243 18.0067C8.34835 17.9837 8.37472 17.9082 8.36799 17.8628C8.26838 17.1989 8.15531 16.5371 8.06272 15.8724C8.0414 15.7186 7.98585 15.6771 7.84191 15.6625C6.86636 15.5649 5.90063 15.4058 4.9478 15.1743C4.85605 15.1521 4.81397 15.1743 4.76964 15.2498C4.41668 15.8547 4.09402 16.4745 3.85385 17.1336C3.67288 17.6307 3.5267 18.1363 3.55868 18.6753C3.58309 19.0863 3.76883 19.365 4.11197 19.4648C4.26208 19.5086 4.42341 19.5148 4.57941 19.5381L4.57997 19.5383ZM10.9277 7.22147C11.1039 7.08286 11.2767 6.93304 11.4633 6.80285C12.1434 6.32784 12.8283 5.85985 13.5112 5.38876C13.5617 5.35397 13.6231 5.33854 13.5962 5.24259C13.3813 4.47802 13.1254 3.72945 12.7303 3.03672C12.5381 2.69975 12.3266 2.37457 12.0008 2.14534C11.6381 1.89002 11.3101 1.89872 10.9641 2.17592C10.6642 2.41609 10.4479 2.72416 10.2613 3.05552C9.75767 3.94998 9.48242 4.9261 9.23468 5.91259C9.21532 5.98947 9.23832 6.03156 9.30286 6.07224C9.44847 6.16455 9.59129 6.26191 9.73157 6.36207C10.1294 6.64601 10.5253 6.93248 10.9274 7.22175L10.9277 7.22147ZM17.6673 19.8327C17.7189 19.8301 17.8174 19.8307 17.9148 19.8195C18.3334 19.7709 18.6033 19.5257 18.6473 19.1183C18.6718 18.8939 18.6765 18.6587 18.6381 18.4377C18.4448 17.319 17.9209 16.3367 17.3399 15.3808C17.3194 15.3471 17.2504 15.3191 17.2097 15.3253C16.5046 15.4316 15.8009 15.5464 15.0958 15.6513C14.9979 15.6659 14.9643 15.6998 14.9539 15.7944C14.8526 16.7228 14.696 17.642 14.4828 18.551C14.4637 18.6318 14.4814 18.6708 14.5513 18.7048C15.0874 18.9649 15.6143 19.2457 16.1606 19.482C16.6227 19.6817 17.1081 19.8245 17.6676 19.8327H17.6673ZM6.04905 12.0672C6.0513 12.0737 6.05017 12.0639 6.04484 12.0566C5.59368 11.4163 5.14336 10.7755 4.68799 10.138C4.66863 10.1111 4.60101 10.0987 4.56286 10.1083C3.85946 10.2831 3.17991 10.5261 2.536 10.8591C2.12047 11.074 1.72317 11.322 1.44148 11.7104C1.30063 11.9045 1.21562 12.1203 1.28632 12.3669C1.35703 12.6132 1.51162 12.8046 1.69877 12.9713C2.08343 13.3133 2.52786 13.5602 3.00231 13.749C3.48517 13.9409 3.97618 14.1121 4.43772 14.2826C4.98848 13.5251 5.51203 12.8049 6.04821 12.0672H6.04905ZM11.5141 7.699C11.8566 7.99557 12.1653 8.2638 12.4761 8.52922C12.4975 8.54746 12.5362 8.5497 12.5673 8.55166C13.0092 8.57748 13.4514 8.60161 13.8933 8.62686C13.9982 8.63303 14.1029 8.64257 14.2171 8.65127C14.12 7.79047 13.9957 6.95212 13.7965 6.07729C13.0235 6.62665 12.2806 7.15469 11.5143 7.699H11.5141ZM11.5329 16.5791C12.2492 17.1669 12.9851 17.7163 13.7931 18.2438C13.936 17.3959 14.0732 16.5819 14.212 15.7573C14.1498 15.7534 14.127 15.7498 14.1046 15.7509C13.5457 15.7801 12.9865 15.8092 12.4276 15.8407C12.3922 15.8426 12.3499 15.8527 12.3246 15.8749C12.062 16.1053 11.8019 16.339 11.5329 16.5791ZM7.95891 14.9367C7.94011 14.7013 7.93029 14.5152 7.90785 14.3309C7.89999 14.2672 7.87446 14.1954 7.83321 14.1477C7.51504 13.7815 7.1907 13.421 6.86945 13.0577C6.76591 12.9407 6.66519 12.8214 6.54538 12.682C6.10741 13.2818 5.68403 13.8624 5.26036 14.4426C5.26962 14.4617 5.27916 14.4807 5.28842 14.4998C6.16914 14.6437 7.04985 14.7877 7.95891 14.9364V14.9367ZM6.57653 11.5064C6.60627 11.4517 6.61693 11.4186 6.63797 11.395C7.02825 10.9623 7.41993 10.5308 7.81077 10.0987C7.84472 10.0611 7.89803 10.023 7.90308 9.98062C7.92244 9.82098 7.9258 9.65909 7.93703 9.46044C7.09222 9.59624 6.27267 9.72783 5.41215 9.86615C5.81084 10.4279 6.17896 10.9466 6.57625 11.5064H6.57653ZM15.0518 14.8963C15.6581 14.8042 16.2442 14.7153 16.8303 14.6264L16.8562 14.5815C16.3834 13.9505 15.9106 13.3194 15.4362 12.6862C15.2496 12.8475 15.134 12.9987 15.1399 13.2398C15.1478 13.5557 15.1118 13.873 15.0939 14.1895C15.081 14.4162 15.0669 14.6426 15.0518 14.896V14.8963ZM15.0731 9.49972C15.0984 10.0098 15.1413 10.4848 15.1374 10.9593C15.1354 11.1994 15.2532 11.3358 15.4196 11.496C15.8402 10.9172 16.2549 10.3465 16.694 9.74214C16.1278 9.6574 15.6056 9.5794 15.0728 9.49972H15.0731ZM9.0422 6.80229C8.95186 7.43554 8.86741 8.02587 8.78267 8.61984C9.10814 8.63443 9.37609 8.61592 9.59914 8.37069C9.80985 8.13894 10.0655 7.94787 10.3194 7.72313C9.89346 7.4159 9.48411 7.12102 9.0422 6.80257V6.80229ZM8.80316 15.7618C8.89238 16.3496 8.97795 16.9139 9.06942 17.5151C9.51048 17.1863 9.91843 16.8822 10.332 16.5738C10.0523 16.3182 9.79133 16.0789 9.52928 15.8412C9.5102 15.8238 9.48214 15.8087 9.45717 15.8067C9.24899 15.7904 9.0408 15.7778 8.80344 15.7621L8.80316 15.7618ZM7.05154 12.0908C7.31107 12.3961 7.56527 12.6949 7.83714 13.0147V11.1905C7.56274 11.505 7.31219 11.7923 7.05154 12.0908ZM14.2783 14.9703C14.3021 14.6084 14.324 14.2728 14.3436 13.9735C13.9825 14.3163 13.6125 14.6679 13.2146 15.0458C13.5917 15.0192 13.9289 14.9953 14.2783 14.9703ZM14.3476 10.2974C14.3324 10.0342 14.3189 9.76206 14.2979 9.49046C14.2957 9.46325 14.2485 9.42032 14.2196 9.41779C13.9483 9.39451 13.6761 9.37879 13.3978 9.36028C13.7185 9.67676 14.0316 9.98567 14.3476 10.2974ZM10.926 8.21666C10.8084 8.31907 10.697 8.41643 10.5696 8.52725H11.3011C11.1622 8.41222 11.0519 8.32103 10.926 8.21666ZM11.1723 15.867H10.6953C10.7888 15.9473 10.8606 16.0093 10.9349 16.0733C11.0149 16.0037 11.0837 15.9439 11.172 15.867H11.1723Z" fill="#595073"/>
<path id="Vector_2" d="M9.92853 12.1575C9.92601 11.2773 10.6095 10.6076 11.5118 10.6064C12.2957 10.6053 13.0137 11.3208 13.0129 12.1025C13.012 13.0082 12.337 13.6981 11.4551 13.695C10.6168 13.6922 9.93106 13.0014 9.92853 12.1575Z" fill="#595073"/>
</g>
</g>
</g>
</g>
</svg>
