<svg xmlns="http://www.w3.org/2000/svg" width="24" height="24" viewBox="0 0 24 24" fill="none">
<path d="M18.1016 14.9283C18.2871 15.2759 18.4751 15.6078 18.644 15.9493C18.9964 16.6617 19.298 17.3931 19.4057 18.1888C19.4574 18.5712 19.4593 18.9514 19.3342 19.3246C19.1181 19.9676 18.6518 20.29 17.9992 20.3756C17.3416 20.462 16.7128 20.3172 16.1107 20.0818C15.4828 19.8363 14.8748 19.5398 14.2429 19.2586C14.2303 19.3018 14.2092 19.3798 14.1843 19.4564C13.9295 20.2392 13.6411 21.0075 13.1641 21.6878C13.0465 21.8553 12.9121 22.0116 12.7783 22.1668C12.6776 22.2835 12.475 22.2857 12.3715 22.1738C12.28 22.075 12.1524 22.0018 12.1655 21.8301C12.1731 21.7305 12.1998 21.6601 12.2677 21.5854C12.631 21.1873 12.8847 20.7196 13.0794 20.2227C13.2488 19.79 13.3886 19.3456 13.5434 18.9074C13.5664 18.842 13.5625 18.7982 13.4966 18.757C12.6049 18.1989 11.7688 17.5648 10.9571 16.8976C10.9501 16.8917 10.9406 16.8892 10.9223 16.8805C10.6973 17.0514 10.47 17.2278 10.2386 17.399C9.93863 17.6209 9.63758 17.842 9.33176 18.0555C9.26414 18.1027 9.25263 18.1414 9.27508 18.2141C9.4524 18.7873 9.62636 19.3616 9.80256 19.9354C9.81182 19.966 9.82893 19.996 9.84829 20.0215C10.0368 20.2693 10.229 20.5142 10.4159 20.7634C10.5668 20.9648 10.7125 21.1705 10.8595 21.375C11.1089 21.7218 11.1922 22.1036 11.0688 22.515C10.9251 22.9931 10.5225 23.1345 10.1 22.864C9.74055 22.6339 9.53517 22.3076 9.47597 21.8823C9.42463 21.513 9.3744 21.1418 9.29051 20.7793C9.2344 20.5369 9.11263 20.3105 9.03379 20.0723C8.86993 19.5785 8.71506 19.0816 8.5512 18.5698C8.49368 18.6032 8.42691 18.6411 8.36097 18.6804C7.57116 19.1529 6.75806 19.576 5.87818 19.8585C5.42702 20.0033 4.96548 20.1046 4.49019 20.0903C3.93774 20.0737 3.44 19.9146 3.10051 19.4376C2.83873 19.0704 2.76887 18.6476 2.79132 18.2113C2.83845 17.3036 3.17177 16.479 3.56654 15.6763C3.71861 15.3674 3.88611 15.066 4.0539 14.7473C3.79408 14.66 3.53035 14.5776 3.2711 14.483C2.55816 14.2232 1.87188 13.9112 1.28211 13.4208C0.957491 13.1508 0.690947 12.8335 0.567494 12.4228C0.399992 11.8641 0.556271 11.3737 0.918491 10.9368C1.32448 10.4472 1.84971 10.115 2.42096 9.86505C3.00848 9.60805 3.61536 9.39481 4.22757 9.15717C4.14705 9.00537 4.04885 8.82805 3.95738 8.64736C3.60077 7.94172 3.28793 7.21981 3.15803 6.4328C3.12688 6.24482 3.10921 6.05403 3.09658 5.86352C3.08648 5.71117 3.24641 5.55348 3.39735 5.57088C3.51211 5.58407 3.63753 5.53048 3.74218 5.63738C3.82495 5.72211 3.86788 5.80404 3.87096 5.92833C3.8805 6.34751 3.99946 6.74648 4.1361 7.13872C4.34878 7.74869 4.64142 8.32162 4.9565 8.88417C5.00223 8.96581 5.04179 8.99331 5.14084 8.97002C6.0541 8.75623 6.98083 8.61959 7.91206 8.51381C7.98641 8.50539 8.0139 8.48323 8.02457 8.40691C8.12501 7.69622 8.22798 6.98553 8.33797 6.27624C8.35031 6.196 8.33797 6.15391 8.27091 6.11884C7.77093 5.85847 7.27123 5.59753 6.77125 5.33744C6.74712 5.32482 6.7199 5.31472 6.69297 5.31079C6.29259 5.25103 5.89193 5.19267 5.49127 5.13403C5.3204 5.10906 5.14841 5.09026 4.97895 5.05855C4.50281 4.96905 4.16023 4.7084 3.99105 4.2477C3.88415 3.95702 4.0062 3.67589 4.29266 3.55412C4.79068 3.34257 5.24717 3.43684 5.6728 3.75613C5.9674 3.97722 6.25976 4.20477 6.57372 4.39584C6.81053 4.54005 7.08352 4.62338 7.33351 4.7474C7.72968 4.9438 8.12024 5.1517 8.52932 5.36326C8.54587 5.30658 8.56663 5.24345 8.58291 5.17892C8.80624 4.28614 9.09102 3.41524 9.52479 2.60017C9.80115 2.08083 10.1353 1.6061 10.6345 1.27054C11.2391 0.863705 11.9941 0.922626 12.5508 1.40072C13.0673 1.84459 13.4144 2.40574 13.6784 3.01738C13.9158 3.56731 14.1116 4.13519 14.3327 4.71345C14.4949 4.63264 14.6784 4.53641 14.8655 4.44831C15.517 4.14108 16.185 3.88183 16.9041 3.78223C17.0195 3.76623 17.1362 3.7581 17.2526 3.7508C17.4925 3.73593 17.6089 3.85321 17.6168 4.0931C17.6218 4.24517 17.6109 4.38237 17.4642 4.46823C17.4333 4.48618 17.3991 4.50919 17.3657 4.51059C16.7105 4.53557 16.1028 4.74066 15.5119 5.003C15.1966 5.14301 14.8899 5.30293 14.579 5.45276C14.5232 5.47969 14.5019 5.50495 14.5153 5.57986C14.6615 6.39661 14.8012 7.21448 14.9393 8.03291C14.9617 8.1659 14.9595 8.3031 14.9825 8.43609C14.9892 8.47453 15.0406 8.52868 15.0782 8.53485C15.7271 8.64063 16.3767 8.74108 17.027 8.83731C17.0643 8.84292 17.1292 8.8129 17.146 8.78092C17.3814 8.33621 17.6232 7.89431 17.834 7.43781C17.9002 7.29444 17.8718 7.10926 17.8993 6.94541C17.9799 6.46731 18.0525 5.98725 18.1552 5.51392C18.238 5.13319 18.4804 4.8543 18.8306 4.68483C19.2248 4.49404 19.5783 4.67052 19.6944 5.09811C19.8288 5.59248 19.6852 6.01222 19.3743 6.4011C19.1619 6.66652 18.9621 6.94429 18.7798 7.23103C18.6788 7.38984 18.6322 7.58231 18.5483 7.75318C18.3631 8.12971 18.1698 8.50231 17.9799 8.87631C17.9574 8.92064 17.935 8.96497 17.908 9.01828C18.2484 9.11312 18.5764 9.19729 18.8999 9.29633C19.651 9.52612 20.3835 9.80276 21.0457 10.2337C21.2673 10.3779 21.4693 10.5541 21.6719 10.7258C21.787 10.8235 21.7701 11.0362 21.6629 11.1436C21.549 11.2575 21.4424 11.3796 21.2561 11.324C21.2174 11.3125 21.1719 11.3027 21.1447 11.2763C20.773 10.9158 20.3226 10.6782 19.858 10.4694C19.0985 10.1282 18.302 9.89956 17.5048 9.71803C16.9777 10.4464 16.4561 11.1669 15.928 11.8964C16.1637 12.1975 16.4204 12.5103 16.6603 12.8355C16.9757 13.2634 17.2801 13.6994 17.5837 14.1357C17.6364 14.2114 17.6782 14.2409 17.7742 14.2106C18.3118 14.0408 18.8524 13.8806 19.3903 13.7111C19.4571 13.6901 19.5146 13.6354 19.5732 13.5919C19.7564 13.4567 19.9366 13.3167 20.1209 13.1831C20.4004 12.9808 20.6787 12.7768 20.9646 12.5841C21.319 12.3453 21.7056 12.3167 22.1029 12.455C22.4474 12.5748 22.5888 12.879 22.4505 13.2187C22.2718 13.6576 21.9396 13.9227 21.4716 14.0046C21.0628 14.0762 20.6501 14.1264 20.2438 14.208C20.0783 14.2411 19.9276 14.3424 19.7643 14.3955C19.2503 14.5624 18.7338 14.7209 18.2183 14.8831C18.183 14.8943 18.1488 14.9089 18.1008 14.9272L18.1016 14.9283ZM8.63706 11.9062C8.62303 11.9062 8.60872 11.9062 8.59469 11.9062C8.61096 12.466 8.62527 13.0257 8.64632 13.5855C8.64856 13.6449 8.67409 13.7179 8.71449 13.7591C9.05034 14.1037 9.39096 14.4437 9.73466 14.7804C9.77703 14.8219 9.84661 14.8564 9.9044 14.8579C10.5856 14.8724 11.2669 14.8817 11.9481 14.8859C12.0107 14.8862 12.0901 14.8559 12.1336 14.8121C12.8712 14.0644 13.6049 13.313 14.3369 12.5597C14.3686 12.5271 14.3905 12.4705 14.3911 12.4247C14.395 12.0796 14.3944 11.7345 14.3896 11.3897C14.3891 11.344 14.3683 11.287 14.3369 11.2553C13.6467 10.5595 12.9542 9.86589 12.259 9.17512C12.2203 9.13668 12.1538 9.10526 12.1005 9.10582C11.321 9.1148 10.5419 9.12799 9.76272 9.14678C9.70099 9.14819 9.62748 9.1841 9.58175 9.22731C9.31043 9.48375 9.0495 9.75142 8.77706 10.0065C8.67634 10.1007 8.63425 10.2015 8.63537 10.3373C8.63986 10.8602 8.63706 11.3832 8.63706 11.9062ZM4.57997 19.3389C5.14813 19.315 5.6742 19.1383 6.19046 18.9326C6.93791 18.6349 7.63625 18.241 8.31243 17.8072C8.34835 17.7842 8.37472 17.7088 8.36799 17.6633C8.26838 16.9995 8.15531 16.3376 8.06272 15.6729C8.0414 15.5192 7.98585 15.4776 7.84191 15.463C6.86636 15.3654 5.90063 15.2063 4.9478 14.9748C4.85605 14.9527 4.81397 14.9748 4.76964 15.0503C4.41668 15.6552 4.09402 16.275 3.85385 16.9341C3.67288 17.4313 3.5267 17.9369 3.55868 18.4758C3.58309 18.8869 3.76883 19.1655 4.11197 19.2654C4.26208 19.3091 4.42341 19.3153 4.57941 19.3386L4.57997 19.3389ZM10.9277 7.022C11.1039 6.8834 11.2767 6.73357 11.4633 6.60339C12.1434 6.12838 12.8283 5.66038 13.5112 5.1893C13.5617 5.15451 13.6231 5.13908 13.5962 5.04312C13.3813 4.27856 13.1254 3.52999 12.7303 2.83726C12.5381 2.50029 12.3266 2.1751 12.0008 1.94588C11.6381 1.69055 11.3101 1.69925 10.9641 1.97646C10.6642 2.21663 10.4479 2.5247 10.2613 2.85605C9.75767 3.75052 9.48242 4.72664 9.23468 5.71313C9.21532 5.79001 9.23832 5.83209 9.30286 5.87278C9.44847 5.96509 9.59129 6.06244 9.73157 6.16261C10.1294 6.44655 10.5253 6.73301 10.9274 7.02228L10.9277 7.022ZM17.6673 19.6332C17.7189 19.6307 17.8174 19.6312 17.9148 19.62C18.3334 19.5715 18.6033 19.3263 18.6473 18.9189C18.6718 18.6944 18.6765 18.4593 18.6381 18.2382C18.4448 17.1195 17.9209 16.1373 17.3399 15.1813C17.3194 15.1477 17.2504 15.1196 17.2097 15.1258C16.5046 15.2321 15.8009 15.3469 15.0958 15.4518C14.9979 15.4664 14.9643 15.5004 14.9539 15.5949C14.8526 16.5233 14.696 17.4425 14.4828 18.3515C14.4637 18.4324 14.4814 18.4713 14.5513 18.5053C15.0874 18.7654 15.6143 19.0462 16.1606 19.2825C16.6227 19.4823 17.1081 19.6251 17.6676 19.6332H17.6673ZM6.04905 11.8678C6.0513 11.8742 6.05017 11.8644 6.04484 11.8571C5.59368 11.2169 5.14336 10.576 4.68799 9.93856C4.66863 9.91163 4.60101 9.89928 4.56286 9.90882C3.85946 10.0836 3.17991 10.3266 2.536 10.6596C2.12047 10.8746 1.72317 11.1226 1.44148 11.5109C1.30063 11.705 1.21562 11.9208 1.28632 12.1674C1.35703 12.4138 1.51162 12.6051 1.69877 12.7718C2.08343 13.1138 2.52786 13.3607 3.00231 13.5495C3.48517 13.7414 3.97618 13.9126 4.43772 14.0832C4.98848 13.3256 5.51203 12.6054 6.04821 11.8678H6.04905ZM11.5141 7.49954C11.8566 7.79611 12.1653 8.06433 12.4761 8.32976C12.4975 8.34799 12.5362 8.35024 12.5673 8.3522C13.0092 8.37801 13.4514 8.40214 13.8933 8.42739C13.9982 8.43357 14.1029 8.44311 14.2171 8.4518C14.12 7.59101 13.9957 6.75265 13.7965 5.87783C13.0235 6.42719 12.2806 6.95523 11.5143 7.49954H11.5141ZM11.5329 16.3797C12.2492 16.9675 12.9851 17.5168 13.7931 18.0443C13.936 17.1964 14.0732 16.3825 14.212 15.5579C14.1498 15.554 14.127 15.5503 14.1046 15.5514C13.5457 15.5806 12.9865 15.6098 12.4276 15.6412C12.3922 15.6432 12.3499 15.6533 12.3246 15.6754C12.062 15.9058 11.8019 16.1395 11.5329 16.3797ZM7.95891 14.7372C7.94011 14.5018 7.93029 14.3158 7.90785 14.1314C7.89999 14.0678 7.87446 13.9959 7.83321 13.9482C7.51504 13.5821 7.1907 13.2215 6.86945 12.8582C6.76591 12.7412 6.66519 12.622 6.54538 12.4825C6.10741 13.0824 5.68403 13.6629 5.26036 14.2431C5.26962 14.2622 5.27916 14.2813 5.28842 14.3004C6.16914 14.4443 7.04985 14.5882 7.95891 14.7369V14.7372ZM6.57653 11.3069C6.60627 11.2522 6.61693 11.2191 6.63797 11.1955C7.02825 10.7629 7.41993 10.3314 7.81077 9.89928C7.84472 9.86168 7.89803 9.82353 7.90308 9.78116C7.92244 9.62151 7.9258 9.45962 7.93703 9.26098C7.09222 9.39678 6.27267 9.52836 5.41215 9.66669C5.81084 10.2284 6.17896 10.7472 6.57625 11.3069H6.57653ZM15.0518 14.6968C15.6581 14.6048 16.2442 14.5158 16.8303 14.4269L16.8562 14.382C16.3834 13.751 15.9106 13.12 15.4362 12.4867C15.2496 12.6481 15.134 12.7993 15.1399 13.0403C15.1478 13.3562 15.1118 13.6735 15.0939 13.99C15.081 14.2167 15.0669 14.4432 15.0518 14.6965V14.6968ZM15.0731 9.30026C15.0984 9.81034 15.1413 10.2853 15.1374 10.7598C15.1354 11 15.2532 11.1363 15.4196 11.2965C15.8402 10.7177 16.2549 10.147 16.694 9.54267C16.1278 9.45794 15.6056 9.37994 15.0728 9.30026H15.0731ZM9.0422 6.60283C8.95186 7.23608 8.86741 7.82641 8.78267 8.42038C9.10814 8.43497 9.37609 8.41645 9.59914 8.17123C9.80985 7.93948 10.0655 7.74841 10.3194 7.52367C9.89346 7.21644 9.48411 6.92156 9.0422 6.60311V6.60283ZM8.80316 15.5624C8.89238 16.1502 8.97795 16.7144 9.06942 17.3157C9.51048 16.9868 9.91843 16.6827 10.332 16.3743C10.0523 16.1187 9.79133 15.8794 9.52928 15.6418C9.5102 15.6244 9.48214 15.6092 9.45717 15.6073C9.24899 15.591 9.0408 15.5784 8.80344 15.5626L8.80316 15.5624ZM7.05154 11.8913C7.31107 12.1966 7.56527 12.4954 7.83714 12.8153V10.991C7.56274 11.3055 7.31219 11.5928 7.05154 11.8913ZM14.2783 14.7709C14.3021 14.4089 14.324 14.0734 14.3436 13.774C13.9825 14.1169 13.6125 14.4684 13.2146 14.8463C13.5917 14.8197 13.9289 14.7958 14.2783 14.7709ZM14.3476 10.0979C14.3324 9.83475 14.3189 9.56259 14.2979 9.291C14.2957 9.26378 14.2485 9.22086 14.2196 9.21833C13.9483 9.19504 13.6761 9.17933 13.3978 9.16081C13.7185 9.4773 14.0316 9.78621 14.3476 10.0979ZM10.926 8.0172C10.8084 8.11961 10.697 8.21696 10.5696 8.32779H11.3011C11.1622 8.21276 11.0519 8.12157 10.926 8.0172ZM11.1723 15.6676H10.6953C10.7888 15.7478 10.8606 15.8098 10.9349 15.8738C11.0149 15.8042 11.0837 15.7445 11.172 15.6676H11.1723Z" fill="url(#paint0_linear_201_2432)"/>
<path d="M9.92853 11.9582C9.92601 11.0781 10.6095 10.4084 11.5118 10.4072C12.2957 10.4061 13.0137 11.1216 13.0129 11.9032C13.012 12.8089 12.337 13.4989 11.4551 13.4958C10.6168 13.493 9.93106 12.8022 9.92853 11.9582Z" fill="url(#paint1_linear_201_2432)"/>
<defs>
<linearGradient id="paint0_linear_201_2432" x1="6.00099" y1="23" x2="17.0002" y2="0.998909" gradientUnits="userSpaceOnUse">
<stop stop-color="#53389E"/>
<stop offset="1" stop-color="#6941C6"/>
</linearGradient>
<linearGradient id="paint1_linear_201_2432" x1="10.6996" y1="13.4958" x2="12.2452" y2="10.4089" gradientUnits="userSpaceOnUse">
<stop stop-color="#53389E"/>
<stop offset="1" stop-color="#6941C6"/>
</linearGradient>
</defs>
</svg>