<svg width="117" height="20" viewBox="0 0 117 20" fill="none" xmlns="http://www.w3.org/2000/svg">
<g id="Ebene_1" clip-path="url(#clip0_215_76)">
<path id="Vector" d="M27.705 13.0611C28.8902 13.0611 29.902 13.0003 30.8906 13.0943C31.2491 13.1274 31.7405 13.4701 31.8793 13.7851C32.3533 14.8738 33.2321 15.3767 34.3595 15.2662C34.9724 15.2054 35.8685 14.7964 36.0246 14.3543C36.1865 13.8901 35.7702 13.0114 35.3077 12.6522C34.6775 12.1603 33.764 11.9945 32.9777 11.6684C31.596 11.0937 30.2142 10.5079 28.8382 9.92208C28.9018 9.76733 28.9712 9.61259 29.0348 9.46338C30.7114 10.0713 32.388 10.6681 34.0589 11.2926C36.0188 12.0221 37.9556 12.7903 39.9213 13.5032C40.7943 13.8182 41.2626 14.3654 40.7827 15.1501C40.1583 16.178 39.5339 17.3662 38.5627 18.0018C36.2212 19.5271 33.5617 19.5989 31.0467 18.372C28.9365 17.3441 27.9247 15.5204 27.705 13.0556V13.0611Z" fill="black"/>
<path id="Vector_2" d="M41.0314 7.55672H37.2329C36.3426 5.5285 35.273 4.77138 33.579 5.30744C32.8852 5.5285 32.1915 6.24694 31.9082 6.90459C31.7868 7.18644 32.5962 8.09831 33.1628 8.33595C34.4636 8.87754 35.909 9.12071 37.2445 9.60703C38.3198 9.99941 39.32 10.5742 40.3491 11.066C40.2913 11.1766 40.2335 11.2871 40.1757 11.3976C36.2385 9.91652 32.2897 8.452 28.3757 6.92117C28.0866 6.81064 27.8033 6.21931 27.8438 5.88772C28.1329 3.41186 30.0003 1.78156 32.8506 1.41128C36.9381 0.880741 39.8924 2.45026 40.7654 5.66114C40.9157 6.22484 40.9331 6.81617 41.0371 7.56224L41.0314 7.55672Z" fill="black"/>
<path id="Vector_3" d="M14.9511 15.6476C14.1243 14.9513 13.5173 14.4484 12.9391 13.9621C8.33128 16.4158 4.02985 15.9461 1.47443 12.7628C-0.751444 9.99958 -0.410336 5.21366 2.17399 2.82622C4.86238 0.339314 9.49914 0.151414 12.6096 2.33437C15.0436 4.04205 16.7087 8.65665 13.6907 13.111C13.8063 14.0284 15.616 14.2107 14.9511 15.6476ZM14.2342 8.14821C14.2168 4.24653 11.673 1.80383 7.6375 1.81488C3.74077 1.82593 1.0466 4.46759 1.08129 8.25322C1.1102 12.0941 3.75812 14.6087 7.72422 14.57C11.7077 14.5313 14.2515 12.0167 14.2342 8.14269V8.14821Z" fill="black"/>
<path id="Vector_4" d="M81.7388 19.7317C81.5827 19.4553 81.2936 19.179 81.2936 18.9027C81.2762 14.4926 81.2936 10.0769 81.3052 5.66679C81.3052 5.53968 81.3977 5.4181 81.4497 5.29099C81.5885 5.25783 81.733 5.21914 81.8717 5.18598C82.0163 5.89337 82.1608 6.59523 82.3285 7.41315C83.6062 5.84363 85.2828 4.84887 87.3584 5.2523C88.5898 5.48994 89.9427 6.07575 90.7984 6.91577C92.8219 8.89425 92.3709 12.7849 90.1566 14.5368C87.8903 16.3273 84.4908 15.841 82.2071 13.1496V19.6322C82.051 19.6709 81.8949 19.704 81.7388 19.7427V19.7317ZM91.1337 10.4803C91.2378 7.94922 89.4339 6.07575 86.8438 6.00943C84.2595 5.94864 82.3111 7.72816 82.2244 10.2261C82.1377 12.6357 84.0976 14.6584 86.5894 14.7357C89.1506 14.8186 91.0296 13.0612 91.1337 10.4748V10.4803Z" fill="black"/>
<path id="Vector_5" d="M116.896 10.7787H107.547C107.594 12.8235 108.866 14.4538 110.878 14.4925C112.624 14.5201 114.375 13.9343 116.04 13.6359C115.607 15.1114 112.89 15.9625 110.132 15.3049C107.42 14.6638 105.825 11.9006 106.524 9.06549C107.201 6.31883 109.953 4.67194 112.994 5.20801C115.855 5.71092 117.428 7.83308 116.896 10.7787ZM107.478 9.83367H116.139C115.954 7.30807 114.555 6.0204 112.028 5.97066C109.421 5.9154 107.796 7.2528 107.472 9.83367H107.478Z" fill="black"/>
<path id="Vector_6" d="M77.5184 13.5143C74.4022 16.0454 71.3784 16.1836 69.1815 14.0282C67.2389 12.1216 67.2273 8.60124 69.1584 6.67803C71.2859 4.55586 74.5294 4.71613 77.4721 7.20857C77.5184 6.73329 77.5126 6.35749 77.5993 6.0038C77.6629 5.73853 77.8421 5.50089 77.9751 5.24667C78.1543 5.49536 78.4897 5.74405 78.4955 5.99827C78.5417 7.86622 78.5244 9.73416 78.5244 11.5966C78.5244 12.5527 78.5591 13.5087 78.5012 14.4648C78.4839 14.7522 78.2122 15.0285 78.0561 15.3104C77.9 15.034 77.7034 14.7743 77.6051 14.4814C77.5242 14.2382 77.5531 13.9564 77.5242 13.5087L77.5184 13.5143ZM77.6224 10.2923C77.6051 7.77227 75.6799 5.97064 73.0551 6.00932C70.5401 6.04801 68.6149 7.93806 68.6438 10.331C68.6785 12.8179 70.6615 14.719 73.1765 14.6748C75.8418 14.6251 77.634 12.8566 77.6167 10.2923H77.6224Z" fill="black"/>
<path id="Vector_7" d="M64.5852 15.4154C64.4348 15.0396 64.1631 14.6693 64.1515 14.2935C64.0822 12.6135 64.1515 10.9224 64.0533 9.24786C63.9376 7.20306 62.5501 6.00935 60.4109 5.98724C58.318 5.96513 56.6414 7.28596 56.5084 9.22575C56.3928 10.9003 56.4853 12.5914 56.4217 14.2714C56.4101 14.6583 56.1442 15.0341 55.9996 15.4154L55.5198 15.2717V5.28538C55.6643 5.24117 55.8088 5.19143 55.9476 5.14722C56.1384 5.62802 56.3292 6.1033 56.4679 6.46252C57.5549 6.04803 58.6649 5.3738 59.8443 5.22459C62.8738 4.84326 64.7875 6.42936 65.0997 9.3197C65.146 9.77287 65.1575 10.226 65.1633 10.6847C65.1691 12.1824 65.1633 13.6801 65.1633 15.1778C64.9725 15.2551 64.7817 15.338 64.5909 15.4154H64.5852Z" fill="black"/>
<path id="Vector_8" d="M103.078 6.76667C102.668 6.66719 102.263 6.5014 101.847 6.47377C100.407 6.37429 98.9445 6.16981 97.5281 6.31902C96.9904 6.37429 96.1868 7.26958 96.1752 7.80012C96.1636 8.31408 96.8979 9.09331 97.4876 9.32542C98.5745 9.74544 99.806 9.84491 100.968 10.0881C102.876 10.486 103.801 11.3426 103.795 12.6689C103.784 14.0671 102.604 15.2609 100.806 15.4819C98.5456 15.7582 96.418 15.5151 94.9091 13.6361C94.9669 13.4924 95.0189 13.3487 95.0767 13.205C95.4294 13.3321 95.8283 13.3984 96.1232 13.6029C97.6148 14.6364 99.251 14.9072 101.026 14.5148C102.067 14.2827 102.94 13.6803 102.76 12.6855C102.65 12.061 101.864 11.315 101.199 11.0552C100.066 10.6186 98.7711 10.5799 97.5685 10.287C96.3082 9.97755 95.2097 9.44701 95.1923 7.96039C95.175 6.6893 95.9439 5.81612 97.476 5.374C99.4591 4.79925 101.402 5.13636 103.142 6.34666C103.119 6.48482 103.101 6.62298 103.078 6.76114V6.76667Z" fill="black"/>
<path id="Vector_9" d="M43.7313 5.09763C43.9915 5.40159 44.3441 5.66133 44.5002 6.0095C45.6739 8.68431 46.8128 11.3702 48.0558 14.2882C48.8942 12.3981 49.6515 10.6794 50.4089 8.96064C50.8541 7.95482 51.2704 6.93795 51.7733 5.96529C51.9526 5.61712 52.3573 5.37396 52.6579 5.08105C52.7851 5.175 52.9181 5.26343 53.0453 5.35738C52.0682 7.54586 51.1085 9.73434 50.1198 11.9173C49.0445 14.2937 47.9576 16.6645 46.8244 19.0188C46.6683 19.3449 46.2405 19.5604 45.9398 19.8257C45.8473 19.7428 45.7606 19.6544 45.6681 19.5715C45.8473 19.1017 45.9225 18.5656 46.2173 18.1788C47.7841 16.1672 47.1655 14.255 46.1884 12.2323C45.1188 10.0107 44.2458 7.70613 43.2803 5.43475C43.4249 5.32422 43.5694 5.20816 43.7139 5.09763H43.7313Z" fill="black"/>
<path id="Vector_10" d="M21.9062 8.46866C22.9064 8.46866 23.9124 8.44103 24.9068 8.49076C25.1381 8.50182 25.3577 8.78367 25.5832 8.93841C25.3577 9.1042 25.1323 9.41368 24.901 9.41368C22.8544 9.45237 20.8019 9.45237 18.7495 9.41368C18.5125 9.41368 18.287 9.1042 18.0557 8.93288C18.287 8.77261 18.5125 8.49076 18.7553 8.47971C19.8017 8.42997 20.854 8.45761 21.9004 8.45761L21.9062 8.46866Z" fill="black"/>
</g>
<defs>
<clipPath id="clip0_215_76">
<rect width="117" height="19" fill="white" transform="translate(0.00012207 0.820068)"/>
</clipPath>
</defs>
</svg>
