<svg width="50" height="50" viewBox="0 0 50 50" fill="none" xmlns="http://www.w3.org/2000/svg">
<path id="Vector" fill-rule="evenodd" clip-rule="evenodd" d="M24.9445 49.3173C11.4274 49.3173 0.502072 38.3924 0.502073 24.8758C0.502074 11.3592 11.4274 0.434327 24.9445 0.434328C38.4616 0.434329 49.3869 11.3592 49.3869 24.8758C49.3869 38.3924 38.4616 49.3173 24.9445 49.3173ZM47.4315 24.8758C47.4315 12.44 37.3808 2.38965 24.9445 2.38965C12.5082 2.38964 2.45746 12.44 2.45746 24.8758C2.45746 37.3116 12.5082 47.3619 24.9445 47.3619C37.3808 47.3619 47.4315 37.3116 47.4315 24.8758ZM25.6777 25.609L36.4324 25.609L36.4324 27.5644L32.0328 27.5644L32.0328 36.3633L30.0774 36.3633L30.0774 27.5644L25.6777 27.5644L25.6777 25.609ZM24.4556 26.7467L20.216 30.9862L24.4556 35.2256L23.0726 36.6077L18.8339 32.3682L14.5942 36.6077L13.2121 35.2248L17.4518 30.9862L13.2121 26.7467L14.5951 25.3646L18.8339 29.6041L23.0735 25.3646L24.4556 26.7467ZM25.4333 18.6437C25.4336 17.4573 25.8175 16.3029 26.5278 15.3526C27.2381 14.4024 28.2366 13.7074 29.3744 13.3712C30.5122 13.0351 31.7281 13.076 32.8408 13.4877C33.9534 13.8994 34.9031 14.6598 35.548 15.6556L29.3761 21.8273C29.9164 22.0918 30.5151 22.2145 31.1159 22.1836C31.7167 22.1528 32.2997 21.9694 32.81 21.6509C33.3204 21.3324 33.7412 20.8892 34.0328 20.3631C34.3245 19.8369 34.4773 19.2452 34.477 18.6437L36.4324 18.6437C36.4324 20.1022 35.853 21.501 34.8216 22.5323C33.7903 23.5636 32.3914 24.143 30.9329 24.143C29.4743 24.143 28.0755 23.5636 27.0441 22.5323C26.0127 21.501 25.4333 20.1022 25.4333 18.6437ZM27.3887 18.6437C27.3887 19.3316 27.5843 19.9715 27.922 20.5145L32.8043 15.6334C32.2676 15.2992 31.6514 15.1147 31.0194 15.0991C30.3874 15.0834 29.7628 15.2371 29.2102 15.5442C28.6577 15.8513 28.1974 16.3007 27.8771 16.8457C27.5568 17.3907 27.3882 18.0115 27.3887 18.6437ZM22.9571 13.1439L24.4556 14.4015L19.8116 19.936L19.8116 24.1425L17.8562 24.1425L17.8562 19.936L13.2121 14.4015L14.7107 13.1439L18.8339 18.058L22.9571 13.1439Z" fill="#252330"/>
</svg>
