<svg width="161" height="73" viewBox="0 0 161 73" fill="none" xmlns="http://www.w3.org/2000/svg">
<g id="SVG">
<path id="Vector" d="M89.1976 18L89.1976 21.1267L95.2424 23.4891L89.1984 25.736L89.1984 28.9551L99.5505 24.7627L99.5505 22.1693L89.1976 18ZM125.169 37.9638L129.709 37.9638C129.639 36.1809 128.828 35.4166 127.486 35.4166C126.42 35.4166 125.448 35.9951 125.169 37.9638ZM127.578 45.6757C124.081 45.6757 121.696 43.5907 121.696 39.5609L121.696 39.3307C121.696 35.2779 124.22 33.0542 127.461 33.0542C130.472 33.0542 132.997 34.7437 132.997 38.7513L132.997 40.2106L125.123 40.2106C125.263 42.3881 126.188 43.2218 127.648 43.2218C128.944 43.2218 129.639 42.5268 129.871 41.6469L132.997 41.6469C132.628 43.9391 130.751 45.6757 127.578 45.6757ZM113.612 33.3093L116.993 33.3093L116.993 35.5321C117.71 33.911 118.846 33.1475 120.629 33.1475L120.629 36.4813C118.336 36.4813 116.993 37.1763 116.993 39.1921L116.993 45.4224L113.612 45.4224L113.612 33.3093ZM111.156 45.4216L107.774 45.4216L107.774 43.6378C107.194 44.7959 106.06 45.6757 104.252 45.6757C102.076 45.6757 100.477 44.355 100.477 41.5074L100.477 33.3101L103.883 33.3101L103.883 40.999C103.883 42.3881 104.438 43.037 105.642 43.037C106.824 43.037 107.774 42.2957 107.774 40.791L107.774 33.3101L111.156 33.3101L111.156 45.4216ZM96.0992 29.6501L96.0992 33.3093L98.4154 33.3093L98.4154 35.8316L96.0992 35.8316L96.0992 41.5767C96.0992 42.4806 96.5161 42.8974 97.3035 42.8974C97.7897 42.8974 98.1604 42.8272 98.4848 42.6894L98.4848 45.3291C97.8663 45.5017 97.2266 45.587 96.5845 45.5824C93.9456 45.5824 92.6942 44.379 92.6942 41.9233L92.6942 35.8316L91.2809 35.8316L91.2809 33.3101L92.6942 33.3101L92.6942 31.0393L96.0992 29.6501ZM79.0748 33.3092L82.4559 33.3092L82.4559 35.1161C83.0594 33.9803 84.2629 33.0542 86.116 33.0542C88.3167 33.0542 89.7753 34.374 89.7753 37.315L89.7753 45.4216L86.3933 45.4216L86.3933 37.8251C86.3933 36.4129 85.8156 35.7881 84.5873 35.7881C83.4051 35.7881 82.4559 36.5062 82.4559 38.0349L82.4559 45.4224L79.0748 45.4224L79.0748 33.3092ZM69.161 37.9638L73.7002 37.9638C73.6309 36.1809 72.8203 35.4165 71.4764 35.4165C70.4116 35.4165 69.4392 35.9951 69.161 37.9638ZM71.5697 45.6757C68.0722 45.6757 65.6866 43.5907 65.6866 39.5609L65.6866 39.3307C65.6866 35.2779 68.2109 33.0542 71.4541 33.0542C74.4646 33.0542 76.9897 34.7437 76.9897 38.7512L76.9897 40.2106L69.1148 40.2106C69.2534 42.3881 70.1805 43.2218 71.639 43.2218C72.9358 43.2218 73.6308 42.5268 73.8628 41.6469L76.9897 41.6469C76.6182 43.9391 74.7428 45.6757 71.5697 45.6757ZM58.8756 45.6757C55.5177 45.6757 53.0859 43.5907 53.0859 39.4916L53.0859 39.3316C53.0859 35.2317 55.6795 33.0542 58.8988 33.0542C61.655 33.0542 63.925 34.4442 64.2032 37.6163L60.9608 37.6163C60.7519 36.436 60.1502 35.6716 58.969 35.6716C57.5318 35.6716 56.5372 36.8057 56.5372 39.1912L56.5372 39.5618C56.5372 42.0175 57.4171 43.1285 58.9921 43.1285C60.1502 43.1285 61.0061 42.2717 61.1919 40.951L64.2725 40.951C64.0414 43.7062 62.1651 45.6757 58.8756 45.6757ZM46.2749 45.6757C42.917 45.6757 40.4852 43.5907 40.4852 39.4916L40.4852 39.3316C40.4852 35.2317 43.0787 33.0542 46.298 33.0542C49.0542 33.0542 51.3243 34.4442 51.6025 37.6163L48.3601 37.6163C48.1512 36.436 47.5495 35.6716 46.3682 35.6716C44.931 35.6716 43.9364 36.8057 43.9364 39.1912L43.9364 39.5618C43.9364 42.0175 44.8164 43.1285 46.3913 43.1285C47.5495 43.1285 48.4054 42.2717 48.5912 40.951L51.6718 40.951C51.4407 43.7062 49.5644 45.6757 46.2749 45.6757ZM35.2261 41.3918L35.2261 40.2337L33.8822 40.2337C32.2156 40.2337 31.3588 40.6968 31.3588 41.7847L31.3588 41.9002C31.3588 42.7348 31.869 43.3134 33.0031 43.3134C34.1613 43.3134 35.2261 42.6654 35.2261 41.3918ZM31.9837 45.6757C29.807 45.6757 28 44.5648 28 42.1082L28 41.9713C28 38.9823 30.5936 38.01 33.7213 38.01L35.2261 38.01L35.2261 37.4323C35.2261 36.2271 34.6928 35.4859 33.4431 35.4859C32.3081 35.4859 31.7064 36.1347 31.6121 37.0608L28.3706 37.0608C28.6017 34.374 30.7322 33.0542 33.6058 33.0542C36.5228 33.0542 38.608 34.3047 38.608 37.315L38.608 45.4215L35.2954 45.4215L35.2954 44.0315C34.7159 44.9114 33.6049 45.6757 31.9837 45.6757Z" fill="#252330"/>
</g>
</svg>
